PathFileType	4	(x/y/z)	S06_M20_T18
DataRate	CameraRate	NumFrames	NumMarkers	Units	OrigDataRate	OrigDataStartFrame	OrigNumFrames
240	240	11	51	mm	240	361	481
Frame#	Time	Sternum			R.Acromium			L.Acromium			Top.Head			R.ASIS			L.ASIS			R.PSIS			L.PSIS			R.Great.Tro			L.Great.Tro			R.Iliac.Crest			L.Iliac.Crest			V.Sacral			R.Thigh.Upper.Post			R.Thigh.Lower.Ant			R.Thigh.Lower.Post			R.Thigh.Upper.Ant			R.Knee.Lat			R.Knee.Med			R.Shank.Upper.Post			R.Shank.Lower.Ant			R.Shank.Lower.Post			R.Shank.Upper.Ant			R.Ankle.Lat			R.Ankle.Med			R.Heel.Upper			R.Heel.Med			R.Heel.Lat			R.Toe.Lat			R.Toe.Med			R.Toe.Tip			L.Thigh.Upper.Post			L.Thigh.Lower.Ant			L.Thigh.Lower.Post			L.Thigh.Upper.Ant			L.Knee.Lat			L.Knee.Med			L.Shank.Upper.Post			L.Shank.Lower.Ant			L.Shank.Lower.Post			L.Shank.Upper.Ant			L.Ankle.Lat			L.Ankle.Med			L.Heel.Upper			L.Heel.Med			L.Heel.Lat			L.Toe.Lat			L.Toe.Med			L.Toe.Tip			Cervical.Spine			Back			
		X1	Y1	Z1	X2	Y2	Z2	X3	Y3	Z3	X4	Y4	Z4	X5	Y5	Z5	X6	Y6	Z6	X7	Y7	Z7	X8	Y8	Z8	X9	Y9	Z9	X10	Y10	Z10	X11	Y11	Z11	X12	Y12	Z12	X13	Y13	Z13	X14	Y14	Z14	X15	Y15	Z15	X16	Y16	Z16	X17	Y17	Z17	X18	Y18	Z18	X19	Y19	Z19	X20	Y20	Z20	X21	Y21	Z21	X22	Y22	Z22	X23	Y23	Z23	X24	Y24	Z24	X25	Y25	Z25	X26	Y26	Z26	X27	Y27	Z27	X28	Y28	Z28	X29	Y29	Z29	X30	Y30	Z30	X31	Y31	Z31	X32	Y32	Z32	X33	Y33	Z33	X34	Y34	Z34	X35	Y35	Z35	X36	Y36	Z36	X37	Y37	Z37	X38	Y38	Z38	X39	Y39	Z39	X40	Y40	Z40	X41	Y41	Z41	X42	Y42	Z42	X43	Y43	Z43	X44	Y44	Z44	X45	Y45	Z45	X46	Y46	Z46	X47	Y47	Z47	X48	Y48	Z48	X49	Y49	Z49	X50	Y50	Z50	X51	Y51	Z51	

361	1.5	416.06	1294.2	288.17	285.97	1501.1	451.92	267.55	1490.2	101.19	338.69	1810.8	264.17	377.26	1054.4	419.28	394.58	1054.8	165.37	184.34	1070.1	317.36	186.9	1072.9	235.92	314.03	977.9	464.87	306.75	979.1	108.83	289.72	1126.7	446.62	319.67	1121.9	124.6	171.75	1037.5	279.96	313.96	728.39	475.06	372.52	646.6	456.72	304.26	639.73	465.24	385.87	736.54	462.13	308.34	531.01	461.46	331.14	521.73	334.47	115.74	410.83	459.73	106.33	323.55	436.96	54.966	364.8	444.1	166.18	369.67	452.94	-25.288	261.92	417.95	-5.3225	247.23	333.39	-80.612	292.12	363.18	-101.13	270.76	330.59	-108.45	271.95	395.38	-44.272	111.5	444.03	-11.219	93.158	330.51	27.106	42.254	379.82	397.17	721.86	137.25	453.01	653.49	202.89	387.97	634.3	161.92	455.26	744.68	174.49	387.23	541.93	182.76	411.37	557.15	302.01	356.87	311.22	204.28	425.03	254.26	210.83	356.16	240.54	225.59	421.82	323.71	195.28	413.02	104.76	232.66	420.66	129.76	319.02	337.89	71.156	282.1	343.99	45.001	315.07	343.88	45.084	252.94	523.07	45.368	214.48	541.48	52.591	332.69	612.16	70.021	277.55	223.46	1546.9	277.41	176.86	1270.6	284.06
362	1.5042	421.32	1294.5	288.11	291.21	1501.4	451.85	273.03	1490.8	101.11	344.25	1811.3	264.31	382.46	1054.9	418.99	399.74	1055.1	165.11	189.53	1070.4	317	192.09	1073.4	235.54	319.67	978.38	464.64	311.84	979.56	108.52	294.82	1127.1	446.31	325.03	1122.4	124.3	176.97	1038	279.53	322.61	728.88	475.27	381.79	647.59	456.59	313.63	640.13	465.55	394.35	737.63	461.74	318.52	531.59	461.67	340.89	522.3	334.58	126.27	411	460.04	117.19	323.6	437.57	65.692	364.68	444.55	176.86	370.01	453.46	-14.393	261.63	418.61	5.7768	246.61	334.34	-70.785	290.43	363.36	-90.878	268.16	331.01	-98.168	270.07	395.81	-30.324	111.67	446.65	2.8764	92.357	333.24	42.341	43.027	383.24	400.91	721.99	137.13	456.42	653.31	202.69	391.27	634.48	161.81	459.17	744.46	174.29	389.83	542	182.71	414.04	557.12	301.95	358.36	311.4	204.47	426.26	254.13	210.96	357.36	240.74	225.83	423.36	323.58	195.34	413.66	104.81	232.97	421.31	129.68	319.27	338.1	71.344	282.23	344.11	45.133	315.13	344.03	45.365	253	523.32	45.191	214.61	541.81	51.572	333.04	612.7	68.548	277.94	228.88	1547.4	277.3	182.13	1271.1	283.65
363	1.5083	426.56	1294.9	288.05	296.42	1501.8	451.78	278.5	1491.3	101.03	349.8	1811.7	264.46	387.65	1055.4	418.69	404.87	1055.5	164.84	194.7	1070.8	316.67	197.25	1073.9	235.19	325.29	978.84	464.42	316.87	980	108.23	299.9	1127.4	446.01	330.36	1122.8	124.01	182.16	1038.4	279.14	331.23	729.4	475.46	391.04	648.61	456.45	322.97	640.57	465.81	402.8	738.75	461.37	328.69	532.2	461.83	350.64	522.9	334.65	136.87	411.11	460.3	128.16	323.59	438.17	76.505	364.47	444.96	187.62	370.31	453.95	-3.3162	261.15	419.27	17.034	245.85	335.27	-60.759	288.56	363.61	-80.426	265.42	331.51	-87.676	268.01	396.31	-16.217	111.69	449.17	17.098	91.491	335.87	57.699	43.737	386.47	404.6	722.12	137.02	459.78	653.14	202.51	394.52	634.66	161.71	463.03	744.23	174.1	392.35	542.06	182.66	416.6	557.1	301.9	359.78	311.58	204.68	427.43	254.01	211.1	358.49	240.95	226.09	424.83	323.45	195.41	414.25	104.86	233.28	421.93	129.61	319.52	338.31	71.523	282.37	344.22	45.259	315.19	344.17	45.638	253.06	523.54	45.052	214.72	542.11	50.623	333.37	613.19	67.175	278.3	234.3	1547.9	277.19	187.38	1271.6	283.25
364	1.5125	431.78	1295.2	287.99	301.62	1502.1	451.7	283.96	1491.9	100.95	355.35	1812.2	264.62	392.83	1055.9	418.4	409.98	1055.9	164.56	199.86	1071.1	316.36	202.38	1074.3	234.86	330.9	979.29	464.21	321.81	980.43	107.94	304.98	1127.8	445.72	335.65	1123.3	123.73	187.33	1038.7	278.77	339.82	729.95	475.64	400.26	649.65	456.28	332.27	641.04	466.04	411.2	739.9	461.01	338.85	532.85	461.94	360.4	523.56	334.68	147.53	411.16	460.52	139.24	323.5	438.77	87.405	364.17	445.33	198.46	370.57	454.41	7.9401	260.48	419.93	28.443	244.95	336.18	-50.535	286.52	363.93	-69.779	262.55	332.09	-76.97	265.78	396.88	-1.9608	111.58	451.59	31.439	90.566	338.37	73.168	44.379	389.5	408.21	722.26	136.92	463.07	652.96	202.35	397.69	634.85	161.62	466.83	743.99	173.92	394.79	542.14	182.63	419.08	557.08	301.86	361.14	311.76	204.89	428.54	253.9	211.24	359.57	241.15	226.36	426.22	323.33	195.48	414.8	104.92	233.59	422.52	129.55	319.76	338.5	71.694	282.51	344.32	45.379	315.25	344.3	45.901	253.12	523.73	44.945	214.83	542.4	49.746	333.68	613.65	65.903	278.63	239.7	1548.4	277.09	192.59	1272.1	282.84
365	1.5167	436.98	1295.6	287.93	306.8	1502.4	451.63	289.4	1492.5	100.87	360.89	1812.6	264.8	398	1056.4	418.09	415.06	1056.2	164.28	204.99	1071.5	316.09	207.48	1074.8	234.57	336.48	979.74	464.01	326.68	980.84	107.65	310.05	1128.2	445.44	340.92	1123.7	123.45	192.48	1039.1	278.44	348.37	730.52	475.81	409.44	650.72	456.1	341.54	641.54	466.23	419.56	741.07	460.66	349	533.52	462.01	370.15	524.26	334.67	158.24	411.14	460.71	150.43	323.34	439.35	98.391	363.77	445.69	209.38	370.8	454.85	19.374	259.64	420.61	40	243.92	337.07	-40.116	284.3	364.33	-58.938	259.54	332.75	-66.053	263.37	397.53	12.44	111.33	453.89	45.892	89.586	340.75	88.739	44.951	392.32	411.77	722.4	136.83	466.3	652.78	202.21	400.8	635.05	161.53	470.57	743.75	173.73	397.16	542.21	182.6	421.47	557.06	301.83	362.43	311.95	205.11	429.58	253.8	211.37	360.58	241.37	226.63	427.55	323.22	195.55	415.3	104.98	233.89	423.07	129.5	320	338.68	71.858	282.65	344.41	45.494	315.3	344.42	46.154	253.19	523.91	44.865	214.93	542.67	48.943	333.96	614.06	64.733	278.92	245.1	1548.9	276.98	197.79	1272.6	282.45
366	1.5208	442.17	1295.9	287.87	311.97	1502.7	451.56	294.83	1493	100.79	366.43	1813	264.99	403.16	1056.9	417.78	420.12	1056.6	164	210.11	1071.8	315.84	212.55	1075.2	234.3	342.05	980.16	463.82	331.49	981.24	107.37	315.12	1128.6	445.17	346.14	1124.2	123.18	197.62	1039.5	278.14	356.88	731.11	475.95	418.58	651.82	455.9	350.77	642.08	466.38	427.86	742.26	460.32	359.15	534.23	462.04	379.89	525.02	334.63	169.02	411.07	460.87	161.72	323.12	439.93	109.46	363.28	446.02	220.38	370.99	455.27	30.983	258.62	421.3	51.7	242.76	337.95	-29.505	281.92	364.8	-47.908	256.41	333.49	-54.927	260.79	398.27	26.98	110.93	456.06	60.455	88.558	342.98	104.41	45.455	394.92	415.25	722.54	136.75	469.46	652.61	202.08	403.83	635.25	161.45	474.26	743.49	173.56	399.45	542.3	182.57	423.77	557.05	301.81	363.66	312.15	205.33	430.56	253.71	211.49	361.55	241.58	226.9	428.8	323.11	195.62	415.75	105.05	234.18	423.59	129.47	320.23	338.85	72.015	282.78	344.49	45.604	315.35	344.53	46.394	253.25	524.06	44.808	215.01	542.92	48.215	334.21	614.44	63.661	279.18	250.48	1549.4	276.87	202.96	1273.1	282.07
367	1.525	447.34	1296.2	287.8	317.13	1502.9	451.49	300.25	1493.6	100.72	371.96	1813.4	265.19	408.31	1057.4	417.47	425.16	1056.9	163.7	215.21	1072.1	315.61	217.6	1075.6	234.06	347.59	980.58	463.63	336.23	981.64	107.1	320.18	1128.9	444.92	351.33	1124.6	122.92	202.73	1039.8	277.87	365.35	731.73	476.07	427.69	652.94	455.68	359.96	642.64	466.49	436.12	743.48	460	369.28	534.98	462.03	389.63	525.82	334.54	179.86	410.93	461.01	173.11	322.84	440.49	120.62	362.7	446.35	231.45	371.15	455.66	42.763	257.44	422	63.538	241.49	338.81	-18.709	279.38	365.35	-36.692	253.17	334.31	-43.595	258.04	399.08	41.659	110.4	458.11	75.127	87.488	345.08	120.18	45.893	397.3	418.67	722.69	136.67	472.56	652.43	201.95	406.8	635.46	161.38	477.88	743.24	173.38	401.66	542.39	182.54	426	557.04	301.79	364.82	312.35	205.55	431.49	253.63	211.61	362.46	241.81	227.16	429.99	323.03	195.67	416.16	105.13	234.45	424.07	129.45	320.45	339.01	72.165	282.9	344.56	45.71	315.39	344.63	46.622	253.32	524.2	44.768	215.09	543.15	47.56	334.43	614.78	62.687	279.4	255.85	1549.8	276.76	208.12	1273.6	281.7
368	1.5292	452.49	1296.5	287.74	322.28	1503.2	451.42	305.65	1494.1	100.64	377.49	1813.7	265.4	413.45	1057.8	417.15	430.17	1057.3	163.4	220.28	1072.4	315.42	222.63	1076	233.86	353.11	980.99	463.46	340.93	982.03	106.83	325.24	1129.3	444.67	356.48	1125	122.67	207.83	1040.2	277.63	373.78	732.37	476.18	436.75	654.08	455.44	369.1	643.23	466.56	444.32	744.71	459.68	379.39	535.75	461.97	399.36	526.66	334.42	190.75	410.73	461.12	184.59	322.5	441.05	131.85	362.03	446.66	242.6	371.27	456.03	54.709	256.1	422.72	75.508	240.11	339.66	-7.7324	276.69	365.97	-25.293	249.8	335.2	-32.063	255.13	399.97	56.477	109.72	460.02	89.909	86.379	347.02	136.05	46.269	399.46	422.01	722.85	136.59	475.59	652.24	201.82	409.7	635.68	161.3	481.44	742.98	173.2	403.81	542.49	182.52	428.16	557.04	301.76	365.92	312.55	205.75	432.35	253.56	211.71	363.31	242.04	227.41	431.11	322.95	195.72	416.53	105.2	234.7	424.52	129.45	320.64	339.15	72.311	283.02	344.62	45.813	315.43	344.73	46.836	253.38	524.32	44.743	215.15	543.37	46.979	334.63	615.09	61.805	279.59	261.21	1550.3	276.66	213.25	1274	281.34
369	1.5333	457.63	1296.9	287.68	327.42	1503.5	451.35	311.04	1494.7	100.57	383.03	1814.1	265.61	418.59	1058.3	416.83	435.16	1057.6	163.1	225.34	1072.7	315.24	227.63	1076.4	233.68	358.61	981.38	463.3	345.58	982.42	106.56	330.3	1129.6	444.44	361.58	1125.4	122.43	212.91	1040.5	277.43	382.15	733.03	476.26	445.77	655.25	455.18	378.21	643.85	466.58	452.47	745.97	459.37	389.49	536.56	461.87	409.09	527.56	334.25	201.7	410.47	461.23	196.18	322.1	441.59	143.16	361.28	446.97	253.82	371.35	456.37	66.816	254.6	423.45	87.608	238.62	340.48	3.4198	273.84	366.67	-13.715	246.33	336.16	-20.335	252.06	400.92	71.435	108.92	461.8	104.8	85.239	348.82	152.02	46.589	401.4	425.29	723.02	136.51	478.55	652.06	201.68	412.53	635.92	161.21	484.94	742.71	173.01	405.88	542.61	182.48	430.26	557.04	301.73	366.96	312.77	205.95	433.16	253.51	211.79	364.12	242.27	227.65	432.17	322.89	195.75	416.86	105.29	234.93	424.95	129.46	320.81	339.28	72.451	283.12	344.67	45.915	315.46	344.82	47.037	253.43	524.42	44.727	215.21	543.56	46.468	334.8	615.37	61.01	279.75	266.57	1550.7	276.55	218.36	1274.5	281
370	1.5375	462.75	1297.2	287.62	332.55	1503.7	451.28	316.43	1495.2	100.49	388.56	1814.4	265.83	423.72	1058.8	416.52	440.13	1058	162.8	230.38	1073	315.09	232.61	1076.8	233.53	364.09	981.76	463.14	350.19	982.81	106.3	335.35	1130	444.22	366.65	1125.8	122.2	217.97	1040.8	277.25	390.47	733.71	476.31	454.74	656.44	454.89	387.26	644.49	466.56	460.55	747.25	459.07	399.58	537.39	461.73	418.79	528.5	334.04	212.7	410.14	461.32	207.86	321.64	442.12	154.56	360.44	447.28	265.1	371.41	456.68	79.079	252.96	424.19	99.833	237.04	341.3	14.742	270.85	367.43	-1.9608	242.75	337.19	-8.4162	248.82	401.95	86.534	107.97	463.45	119.82	84.072	350.47	168.09	46.857	403.13	428.5	723.19	136.44	481.45	651.87	201.53	415.3	636.16	161.12	488.39	742.44	172.82	407.9	542.73	182.44	432.33	557.06	301.69	367.95	312.99	206.12	433.93	253.47	211.85	364.88	242.52	227.86	433.17	322.84	195.76	417.14	105.37	235.13	425.35	129.5	320.96	339.4	72.588	283.22	344.71	46.016	315.48	344.89	47.225	253.49	524.51	44.718	215.25	543.75	46.026	334.93	615.62	60.297	279.88	271.91	1551.2	276.45	223.45	1275	280.68
371	1.5417	467.87	1297.5	287.57	337.68	1504	451.21	321.8	1495.8	100.42	394.09	1814.8	266.06	428.84	1059.2	416.2	445.08	1058.3	162.5	235.41	1073.3	314.96	237.57	1077.2	233.4	369.56	982.13	462.99	354.77	983.2	106.05	340.41	1130.3	444.01	371.69	1126.2	121.99	223.01	1041.1	277.1	398.74	734.41	476.35	463.65	657.67	454.59	396.27	645.16	466.51	468.58	748.54	458.77	409.64	538.26	461.55	428.48	529.48	333.79	223.75	409.75	461.41	219.63	321.13	442.63	166.03	359.51	447.6	276.46	371.43	456.97	91.492	251.18	424.94	112.18	235.37	342.09	26.23	267.71	368.25	9.9665	239.06	338.27	3.6887	245.43	403.02	101.78	106.9	464.96	134.95	82.885	351.97	184.28	47.082	404.64	431.65	723.38	136.36	484.3	651.68	201.37	418	636.42	161.02	491.79	742.17	172.62	409.84	542.87	182.4	434.35	557.09	301.64	368.9	313.22	206.26	434.65	253.45	211.89	365.6	242.77	228.05	434.13	322.81	195.76	417.4	105.46	235.3	425.72	129.54	321.08	339.5	72.721	283.3	344.74	46.116	315.49	344.97	47.4	253.54	524.59	44.712	215.29	543.91	45.65	335.05	615.85	59.66	279.98	277.24	1551.6	276.35	228.53	1275.4	280.37
